<svg xmlns="http://www.w3.org/2000/svg" width="107" height="23" viewBox="0 0 107 23">
  <path style="fill:#0094e2;fill-rule: evenodd;" class="cls-1" d="M82.148,4.109a6.07,6.07,0,0,1,1.862.28l1.113-4.2A10.358,10.358,0,0,0,83.237.014c-5.319,0-10.741,3.752-12.995,8.7a12.466,12.466,0,0,0-.706,1.958,10.774,10.774,0,0,0-.349,2.131c-0.288,4.868,3.124,8.533,8.382,8.533a11.927,11.927,0,0,0,2-.175l1.113-4.2a7.611,7.611,0,0,1-2.026.284A4.824,4.824,0,0,1,73.5,12.807h8.277L82.747,9.16l0.113-.441H74.532A9.282,9.282,0,0,1,82.148,4.109ZM57.574,0.052H71.353L70.334,4.12H65.617L61.306,21.34H56.963l4.31-17.22H56.554l1.02-4.068h0Zm-46.234,0A7.89,7.89,0,0,0,4.362,4.641a6.376,6.376,0,0,0,1.679,6.8l3.326,2.781a1.693,1.693,0,0,1,.272,2.1,2.177,2.177,0,0,1-2.148.918H1.042L0,21.337H7.467a7.688,7.688,0,0,0,6.724-3.786s2.438-3.684-.459-6.6C13.674,10.891,9.5,7.235,9.5,7.235a1.73,1.73,0,0,1-.612-1.9,1.894,1.894,0,0,1,1.317-1.118,4.375,4.375,0,0,1,.99-0.1h5.19l1.017-4.068H11.34Zm20.118-.042c-6,0-12.136,4.774-13.7,10.663s2.031,10.663,8.032,10.663,12.136-4.774,13.7-10.663S37.46,0.006,31.459.006Zm3.859,10.663a9.245,9.245,0,0,1-8.44,6.567c-3.7,0-5.912-2.94-4.948-6.567A9.247,9.247,0,0,1,30.37,4.1C34.066,4.1,36.282,7.042,35.318,10.669ZM53.5,8.691H46.728l0.541-2.32a3.244,3.244,0,0,1,2.669-2.255h4.676l1.021-4.068H50.52a8,8,0,0,0-7.54,6.238l-3.8,15.05h4.344l2.185-8.554h6.787ZM98.6,0C93.339,0,87.977,3.671,85.679,8.543a12.562,12.562,0,0,0-.791,2.149,10.265,10.265,0,0,0-.216,1.038c0,0.014,0,.028-0.008.042-0.052.326-.085,0.645-0.105,0.96,0,0.061-.007.121-0.01,0.182,0,0.084-.01.17-0.013,0.255,0,0.2.006,0.4,0.015,0.6,0,0.043,0,.087,0,0.129,0.018,0.3.049,0.6,0.093,0.887,0,0.023.006,0.045,0.012,0.068a8.027,8.027,0,0,0,5.377,6.479l0.009-.03,1.147-4.387c-1.888-1.083-2.8-3.688-2.119-6.247A9.245,9.245,0,0,1,97.512,4.1c3.7,0,5.913,2.941,4.948,6.567a9.358,9.358,0,0,1-5.994,6.15l1.015-4.031H93.409L90.826,23H94.9l0.479-1.91A13.98,13.98,0,0,0,98.6,19.967l0.2-.1c0.412-.206.813-0.431,1.207-0.674,0.085-.051.171-0.1,0.256-0.155q0.3-.194.591-0.4c0.16-.112.314-0.229,0.469-0.348,0.234-.18.463-0.364,0.687-0.555,0.184-.157.365-0.318,0.54-0.481,0.119-.111.237-0.22,0.352-0.335,0.265-.262.518-0.535,0.762-0.815,0.078-.09.153-0.182,0.229-0.272,0.263-.316.519-0.638,0.753-0.973,0.028-.04.055-0.082,0.083-0.123,0.178-.257.345-0.519,0.5-0.786,0.046-.075.091-0.15,0.133-0.227,0.135-.235.258-0.474,0.379-0.714,0.049-.1.1-0.2,0.147-0.3,0.1-.218.19-0.439,0.279-0.663,0.049-.122.1-0.245,0.148-0.368,0.065-.182.118-0.368,0.175-0.553,0.049-.154.105-0.306,0.147-0.462C108.2,4.775,104.6,0,98.6,0Z"/>
</svg>
